<?xml version="1.0" encoding="UTF-8" standalone="no"?>
<!DOCTYPE svg PUBLIC "-//W3C//DTD SVG 1.0//EN" "http://www.w3.org/TR/2001/PR-SVG-20010719/DTD/svg10.dtd">
<svg width="30cm" height="21cm" viewBox="-61 79 582 402" xmlns="http://www.w3.org/2000/svg" xmlns:xlink="http://www.w3.org/1999/xlink">
  <g>
    <rect style="fill: #ffffff" x="60" y="100" width="216" height="222"/>
    <rect style="fill: none; fill-opacity:0; stroke-width: 2; stroke: #000000" x="60" y="100" width="216" height="222"/>
    <rect style="fill: #ffffff" x="60" y="80" width="88.7" height="20"/>
    <rect style="fill: none; fill-opacity:0; stroke-width: 2; stroke: #000000" x="60" y="80" width="88.7" height="20"/>
    <text font-size="12.7998" style="fill: #000000;text-anchor:start;font-family:monospace;font-style:normal;font-weight:normal" x="62" y="94">JDP Library</text>
  </g>
  <g>
    <rect style="fill: #ffffff" x="320" y="100" width="198" height="240"/>
    <rect style="fill: none; fill-opacity:0; stroke-width: 2; stroke: #000000" x="320" y="100" width="198" height="240"/>
    <rect style="fill: #ffffff" x="320" y="80" width="96.4" height="20"/>
    <rect style="fill: none; fill-opacity:0; stroke-width: 2; stroke: #000000" x="320" y="80" width="96.4" height="20"/>
    <text font-size="12.7998" style="fill: #000000;text-anchor:start;font-family:monospace;font-style:normal;font-weight:normal" x="322" y="94">JDP.Trackers</text>
  </g>
  <g>
    <rect style="fill: #ffffff" x="80" y="260" width="100" height="38"/>
    <rect style="fill: none; fill-opacity:0; stroke-width: 2; stroke: #000000" x="80" y="260" width="100" height="38"/>
    <text font-size="12.7998" style="fill: #000000;text-anchor:middle;font-family:sans-serif;font-style:normal;font-weight:normal" x="130" y="282.9">
      <tspan x="130" y="282.9">Repository</tspan>
    </text>
  </g>
  <g>
    <rect style="fill: #ffffff" x="340" y="140" width="69" height="38"/>
    <rect style="fill: none; fill-opacity:0; stroke-width: 2; stroke: #000000" x="340" y="140" width="69" height="38"/>
    <text font-size="12.7998" style="fill: #000000;text-anchor:middle;font-family:sans-serif;font-style:normal;font-weight:normal" x="374.5" y="162.9">
      <tspan x="374.5" y="162.9">OpenQA</tspan>
    </text>
  </g>
  <g>
    <rect style="fill: #ffffff" x="340" y="200" width="66.85" height="38"/>
    <rect style="fill: none; fill-opacity:0; stroke-width: 2; stroke: #000000" x="340" y="200" width="66.85" height="38"/>
    <text font-size="12.7998" style="fill: #000000;text-anchor:middle;font-family:sans-serif;font-style:normal;font-weight:normal" x="373.425" y="222.9">
      <tspan x="373.425" y="222.9">Bugzilla</tspan>
    </text>
  </g>
  <g>
    <rect style="fill: #ffffff" x="340" y="260" width="75.2" height="38"/>
    <rect style="fill: none; fill-opacity:0; stroke-width: 2; stroke: #000000" x="340" y="260" width="75.2" height="38"/>
    <text font-size="12.7998" style="fill: #000000;text-anchor:middle;font-family:sans-serif;font-style:normal;font-weight:normal" x="377.6" y="282.9">
      <tspan x="377.6" y="282.9">Redimine</tspan>
    </text>
  </g>
  <g>
    <rect style="fill: #ffffff" x="440" y="111" width="40" height="38"/>
    <rect style="fill: none; fill-opacity:0; stroke-width: 2; stroke: #000000" x="440" y="111" width="40" height="38"/>
    <text font-size="12.7998" style="fill: #000000;text-anchor:middle;font-family:sans-serif;font-style:normal;font-weight:normal" x="460" y="133.9">
      <tspan x="460" y="133.9">Git</tspan>
    </text>
  </g>
  <g>
    <rect style="fill: #ffffff" x="440" y="160" width="43.25" height="38"/>
    <rect style="fill: none; fill-opacity:0; stroke-width: 2; stroke: #000000" x="440" y="160" width="43.25" height="38"/>
    <text font-size="12.7998" style="fill: #000000;text-anchor:middle;font-family:sans-serif;font-style:normal;font-weight:normal" x="461.625" y="182.9">
      <tspan x="461.625" y="182.9">Jira</tspan>
    </text>
  </g>
  <g>
    <rect style="fill: #ffffff" x="440" y="220" width="55.55" height="38"/>
    <rect style="fill: none; fill-opacity:0; stroke-width: 2; stroke: #000000" x="440" y="220" width="55.55" height="38"/>
    <text font-size="12.7998" style="fill: #000000;text-anchor:middle;font-family:sans-serif;font-style:normal;font-weight:normal" x="467.775" y="242.9">
      <tspan x="467.775" y="242.9">QADB</tspan>
    </text>
  </g>
  <g>
    <rect style="fill: #ffffff" x="440" y="280" width="71.05" height="38"/>
    <rect style="fill: none; fill-opacity:0; stroke-width: 2; stroke: #000000" x="440" y="280" width="71.05" height="38"/>
    <text font-size="12.7998" style="fill: #000000;text-anchor:middle;font-family:sans-serif;font-style:normal;font-weight:normal" x="475.525" y="302.9">
      <tspan x="475.525" y="302.9">...</tspan>
    </text>
  </g>
  <g>
    <rect style="fill: #ffffff" x="140" y="120" width="115.95" height="38"/>
    <rect style="fill: none; fill-opacity:0; stroke-width: 2; stroke: #000000" x="140" y="120" width="115.95" height="38"/>
    <text font-size="12.7998" style="fill: #000000;text-anchor:middle;font-family:sans-serif;font-style:normal;font-weight:normal" x="197.975" y="142.9">
      <tspan x="197.975" y="142.9">BugRefs(Parser)</tspan>
    </text>
  </g>
  <g>
    <rect style="fill: #ffffff" x="80" y="120" width="49.15" height="38"/>
    <rect style="fill: none; fill-opacity:0; stroke-width: 2; stroke: #000000" x="80" y="120" width="49.15" height="38"/>
    <text font-size="12.7998" style="fill: #000000;text-anchor:middle;font-family:sans-serif;font-style:normal;font-weight:normal" x="104.575" y="142.9">
      <tspan x="104.575" y="142.9">Conf</tspan>
    </text>
  </g>
  <g>
    <rect style="fill: #ffffff" x="100" y="180" width="138.25" height="38"/>
    <rect style="fill: none; fill-opacity:0; stroke-width: 2; stroke: #000000" x="100" y="180" width="138.25" height="38"/>
    <text font-size="12.7998" style="fill: #000000;text-anchor:middle;font-family:sans-serif;font-style:normal;font-weight:normal" x="169.125" y="202.9">
      <tspan x="169.125" y="202.9">Various other stuff...</tspan>
    </text>
  </g>
  <g>
    <line style="fill: none; fill-opacity:0; stroke-width: 2; stroke: #000000" x1="163.771" y1="328.976" x2="179.779" y2="367.084"/>
    <polygon style="fill: #000000" points="160.866,322.062 169.349,329.345 163.771,328.976 160.129,333.218 "/>
    <polygon style="fill: none; fill-opacity:0; stroke-width: 2; stroke: #000000" points="160.866,322.062 169.349,329.345 163.771,328.976 160.129,333.218 "/>
    <polygon style="fill: #000000" points="182.684,373.998 174.201,366.715 179.779,367.084 183.421,362.842 "/>
    <polygon style="fill: none; fill-opacity:0; stroke-width: 2; stroke: #000000" points="182.684,373.998 174.201,366.715 179.779,367.084 183.421,362.842 "/>
  </g>
  <g>
    <rect style="fill: #ffffff" x="0" y="380" width="520" height="100"/>
    <rect style="fill: none; fill-opacity:0; stroke-width: 2; stroke: #000000" x="0" y="380" width="520" height="100"/>
    <text font-size="12.7998" style="fill: #000000;text-anchor:middle;font-family:sans-serif;font-style:normal;font-weight:normal" x="260" y="433.9">
      <tspan x="260" y="433.9"></tspan>
    </text>
  </g>
  <g>
    <rect style="fill: #ffffff" x="240" y="400" width="247.7" height="54"/>
    <rect style="fill: none; fill-opacity:0; stroke-width: 2; stroke: #000000" x="240" y="400" width="247.7" height="54"/>
    <text font-size="12.7998" style="fill: #000000;text-anchor:middle;font-family:sans-serif;font-style:normal;font-weight:normal" x="363.85" y="422.9">
      <tspan x="363.85" y="422.9">Reports </tspan>
      <tspan x="363.85" y="438.9">(Jupyter (Julia or Python), Weave, etc...)</tspan>
    </text>
  </g>
  <g>
    <rect style="fill: #ffffff" x="20" y="400" width="188.3" height="54"/>
    <rect style="fill: none; fill-opacity:0; stroke-width: 2; stroke: #000000" x="20" y="400" width="188.3" height="54"/>
    <text font-size="12.7998" style="fill: #000000;text-anchor:middle;font-family:sans-serif;font-style:normal;font-weight:normal" x="114.15" y="422.9">
      <tspan x="114.15" y="422.9">Scripts </tspan>
      <tspan x="114.15" y="438.9">(Plain Julia, Python, etc...)</tspan>
    </text>
  </g>
  <g>
    <line style="fill: none; fill-opacity:0; stroke-width: 2; stroke: #000000" x1="286.715" y1="215.257" x2="310.243" y2="216.1"/>
    <polygon style="fill: #000000" points="279.22,214.988 289.393,210.35 286.715,215.257 289.034,220.343 "/>
    <polygon style="fill: none; fill-opacity:0; stroke-width: 2; stroke: #000000" points="279.22,214.988 289.393,210.35 286.715,215.257 289.034,220.343 "/>
    <polygon style="fill: #000000" points="317.738,216.369 307.565,221.008 310.243,216.1 307.924,211.014 "/>
    <polygon style="fill: none; fill-opacity:0; stroke-width: 2; stroke: #000000" points="317.738,216.369 307.565,221.008 310.243,216.1 307.924,211.014 "/>
  </g>
  <g>
    <line style="fill: none; fill-opacity:0; stroke-width: 2; stroke: #000000" x1="413.932" y1="348.313" x2="400.875" y2="369.727"/>
    <polygon style="fill: #000000" points="417.836,341.909 416.899,353.05 413.932,348.313 408.361,347.844 "/>
    <polygon style="fill: none; fill-opacity:0; stroke-width: 2; stroke: #000000" points="417.836,341.909 416.899,353.05 413.932,348.313 408.361,347.844 "/>
    <polygon style="fill: #000000" points="396.971,376.131 397.907,364.99 400.875,369.727 406.445,370.196 "/>
    <polygon style="fill: none; fill-opacity:0; stroke-width: 2; stroke: #000000" points="396.971,376.131 397.907,364.99 400.875,369.727 406.445,370.196 "/>
  </g>
  <g>
    <rect style="fill: #ffffff" x="200" y="260" width="64.6" height="38"/>
    <rect style="fill: none; fill-opacity:0; stroke-width: 2; stroke: #000000" x="200" y="260" width="64.6" height="38"/>
    <text font-size="12.7998" style="fill: #000000;text-anchor:middle;font-family:sans-serif;font-style:normal;font-weight:normal" x="232.3" y="282.9">
      <tspan x="232.3" y="282.9">Tracker</tspan>
    </text>
  </g>
  <g>
    <rect style="fill: #ffffff" x="-60" y="112" width="98.8" height="54"/>
    <rect style="fill: none; fill-opacity:0; stroke-width: 2; stroke: #000000" x="-60" y="112" width="98.8" height="54"/>
    <text font-size="12.7998" style="fill: #000000;text-anchor:middle;font-family:sans-serif;font-style:normal;font-weight:normal" x="-10.6" y="134.9">
      <tspan x="-10.6" y="134.9">Configuration</tspan>
      <tspan x="-10.6" y="150.9">(TOML)</tspan>
    </text>
  </g>
  <g>
    <line style="fill: none; fill-opacity:0; stroke-width: 2; stroke: #000000" x1="38.8" y1="139" x2="69.266" y2="139"/>
    <polygon style="fill: #000000" points="76.766,139 66.766,144 69.266,139 66.766,134 "/>
    <polygon style="fill: none; fill-opacity:0; stroke-width: 2; stroke: #000000" points="76.766,139 66.766,144 69.266,139 66.766,134 "/>
  </g>
</svg>
