<?xml version="1.0" encoding="UTF-8" standalone="no"?>
<!DOCTYPE svg PUBLIC "-//W3C//DTD SVG 1.0//EN" "http://www.w3.org/TR/2001/PR-SVG-20010719/DTD/svg10.dtd">
<svg width="29cm" height="29cm" viewBox="19 39 567 573" xmlns="http://www.w3.org/2000/svg" xmlns:xlink="http://www.w3.org/1999/xlink">
  <g>
    <rect style="fill: #ffffff" x="60" y="60" width="440" height="140"/>
    <rect style="fill: none; fill-opacity:0; stroke-width: 2; stroke: #000000" x="60" y="60" width="440" height="140"/>
    <rect style="fill: #ffffff" x="60" y="40" width="65.6" height="20"/>
    <rect style="fill: none; fill-opacity:0; stroke-width: 2; stroke: #000000" x="60" y="40" width="65.6" height="20"/>
    <text font-size="12.7998" style="fill: #000000;text-anchor:start;font-family:monospace;font-style:normal;font-weight:normal" x="62" y="54">Trackers</text>
  </g>
  <g>
    <ellipse style="fill: #ffffff" cx="560" cy="361.783" rx="6.3913" ry="6.3913"/>
    <ellipse style="fill: none; fill-opacity:0; stroke-width: 2; stroke: #000000" cx="560" cy="361.783" rx="6.3913" ry="6.3913"/>
    <line style="fill: none; fill-opacity:0; stroke-width: 2; stroke: #000000" x1="534.435" y1="374.565" x2="585.565" y2="374.565"/>
    <line style="fill: none; fill-opacity:0; stroke-width: 2; stroke: #000000" x1="560" y1="368.174" x2="560" y2="400.13"/>
    <line style="fill: none; fill-opacity:0; stroke-width: 2; stroke: #000000" x1="560" y1="400.13" x2="534.435" y2="428.217"/>
    <line style="fill: none; fill-opacity:0; stroke-width: 2; stroke: #000000" x1="560" y1="400.13" x2="585.565" y2="428.217"/>
    <text font-size="12.7998" style="fill: #000000;text-anchor:middle;font-family:sans-serif;font-style:normal;font-weight:normal" x="560" y="452.9">
      <tspan x="560" y="452.9">People</tspan>
      <tspan x="560" y="468.9"></tspan>
    </text>
  </g>
  <g>
    <rect style="fill: #ffffff" x="60" y="240" width="440" height="371"/>
    <rect style="fill: none; fill-opacity:0; stroke-width: 2; stroke: #000000" x="60" y="240" width="440" height="371"/>
    <rect style="fill: #ffffff" x="60" y="220" width="40" height="20"/>
    <rect style="fill: none; fill-opacity:0; stroke-width: 2; stroke: #000000" x="60" y="220" width="40" height="20"/>
    <text font-size="12.7998" style="fill: #000000;text-anchor:start;font-family:monospace;font-style:normal;font-weight:normal" x="62" y="234">JDP</text>
  </g>
  <g>
    <rect style="fill: #ffffff" x="100" y="300" width="140" height="118"/>
    <rect style="fill: none; fill-opacity:0; stroke-width: 2; stroke: #000000" x="100" y="300" width="140" height="118"/>
    <text font-size="12.7998" style="fill: #000000;text-anchor:middle;font-family:sans-serif;font-style:normal;font-weight:normal" x="170" y="354.9">
      <tspan x="170" y="354.9">Core library</tspan>
      <tspan x="170" y="370.9">and processes</tspan>
    </text>
  </g>
  <g>
    <rect style="fill: #ffffff" x="120" y="100" width="85.15" height="69"/>
    <rect style="fill: none; fill-opacity:0; stroke-width: 2; stroke: #000000" x="120" y="100" width="85.15" height="69"/>
    <text font-size="12.7998" style="fill: #000000;text-anchor:middle;font-family:sans-serif;font-style:normal;font-weight:normal" x="162.575" y="130.4">
      <tspan x="162.575" y="130.4">Data</tspan>
      <tspan x="162.575" y="146.4">Sources</tspan>
    </text>
  </g>
  <g>
    <rect style="fill: #ffffff" x="340" y="100" width="90.425" height="68"/>
    <rect style="fill: none; fill-opacity:0; stroke-width: 2; stroke: #000000" x="340" y="100" width="90.425" height="68"/>
    <text font-size="12.7998" style="fill: #000000;text-anchor:middle;font-family:sans-serif;font-style:normal;font-weight:normal" x="385.213" y="129.9">
      <tspan x="385.213" y="129.9">Data</tspan>
      <tspan x="385.213" y="145.9">Sinks</tspan>
    </text>
  </g>
  <g>
    <rect style="fill: #ffffff" x="340" y="291" width="100" height="69"/>
    <rect style="fill: none; fill-opacity:0; stroke-width: 2; stroke: #000000" x="340" y="291" width="100" height="69"/>
    <text font-size="12.7998" style="fill: #000000;text-anchor:middle;font-family:sans-serif;font-style:normal;font-weight:normal" x="390" y="329.4">
      <tspan x="390" y="329.4">Scripts</tspan>
    </text>
  </g>
  <g>
    <rect style="fill: #ffffff" x="340" y="380" width="100" height="69"/>
    <rect style="fill: none; fill-opacity:0; stroke-width: 2; stroke: #000000" x="340" y="380" width="100" height="69"/>
    <text font-size="12.7998" style="fill: #000000;text-anchor:middle;font-family:sans-serif;font-style:normal;font-weight:normal" x="390" y="418.4">
      <tspan x="390" y="418.4">Reports</tspan>
    </text>
  </g>
  <g>
    <rect style="fill: #ffffff" x="100" y="460" width="140" height="38"/>
    <rect style="fill: none; fill-opacity:0; stroke-width: 2; stroke: #000000" x="100" y="460" width="140" height="38"/>
    <text font-size="12.7998" style="fill: #000000;text-anchor:middle;font-family:sans-serif;font-style:normal;font-weight:normal" x="170" y="482.9">
      <tspan x="170" y="482.9">Local Data Cache</tspan>
    </text>
  </g>
  <g>
    <rect style="fill: #ffffff" x="100" y="540" width="140" height="38"/>
    <rect style="fill: none; fill-opacity:0; stroke-width: 2; stroke: #000000" x="100" y="540" width="140" height="38"/>
    <text font-size="12.7998" style="fill: #000000;text-anchor:middle;font-family:sans-serif;font-style:normal;font-weight:normal" x="170" y="562.9">
      <tspan x="170" y="562.9">Remote Data Cache</tspan>
    </text>
  </g>
  <g>
    <line style="fill: none; fill-opacity:0; stroke-width: 2; stroke: #000000" x1="163.742" y1="169.797" x2="167.694" y2="289.28"/>
    <polygon style="fill: #000000" points="167.942,296.776 162.614,286.947 167.694,289.28 172.609,286.616 "/>
    <polygon style="fill: none; fill-opacity:0; stroke-width: 2; stroke: #000000" points="167.942,296.776 162.614,286.947 167.694,289.28 172.609,286.616 "/>
  </g>
  <g>
    <line style="fill: none; fill-opacity:0; stroke-width: 2; stroke: #000000" x1="240" y1="329.5" x2="329.273" y2="327.119"/>
    <polygon style="fill: #000000" points="336.77,326.919 326.907,332.184 329.273,327.119 326.64,322.188 "/>
    <polygon style="fill: none; fill-opacity:0; stroke-width: 2; stroke: #000000" points="336.77,326.919 326.907,332.184 329.273,327.119 326.64,322.188 "/>
  </g>
  <g>
    <line style="fill: none; fill-opacity:0; stroke-width: 2; stroke: #000000" x1="240" y1="388.5" x2="329.412" y2="403.998"/>
    <polygon style="fill: #000000" points="336.802,405.279 326.095,408.498 329.412,403.998 327.803,398.645 "/>
    <polygon style="fill: none; fill-opacity:0; stroke-width: 2; stroke: #000000" points="336.802,405.279 326.095,408.498 329.412,403.998 327.803,398.645 "/>
  </g>
  <g>
    <line style="fill: none; fill-opacity:0; stroke-width: 2; stroke: #000000" x1="390" y1="291" x2="386.577" y2="178.736"/>
    <polygon style="fill: #000000" points="386.348,171.24 391.651,181.083 386.577,178.736 381.655,181.388 "/>
    <polygon style="fill: none; fill-opacity:0; stroke-width: 2; stroke: #000000" points="386.348,171.24 391.651,181.083 386.577,178.736 381.655,181.388 "/>
  </g>
  <g>
    <line style="fill: none; fill-opacity:0; stroke-width: 2; stroke: #000000" x1="440" y1="414.5" x2="524.436" y2="404.297"/>
    <polygon style="fill: #000000" points="531.882,403.398 522.554,409.561 524.436,404.297 521.354,399.633 "/>
    <polygon style="fill: none; fill-opacity:0; stroke-width: 2; stroke: #000000" points="531.882,403.398 522.554,409.561 524.436,404.297 521.354,399.633 "/>
  </g>
  <g>
    <line style="fill: none; fill-opacity:0; stroke-width: 2; stroke: #000000" x1="135" y1="460" x2="135" y2="427.736"/>
    <polygon style="fill: #000000" points="135,420.236 140,430.236 135,427.736 130,430.236 "/>
    <polygon style="fill: none; fill-opacity:0; stroke-width: 2; stroke: #000000" points="135,420.236 140,430.236 135,427.736 130,430.236 "/>
  </g>
  <g>
    <line style="fill: none; fill-opacity:0; stroke-width: 2; stroke: #000000" x1="205" y1="418" x2="205" y2="450.264"/>
    <polygon style="fill: #000000" points="205,457.764 200,447.764 205,450.264 210,447.764 "/>
    <polygon style="fill: none; fill-opacity:0; stroke-width: 2; stroke: #000000" points="205,457.764 200,447.764 205,450.264 210,447.764 "/>
  </g>
  <g>
    <line style="fill: none; fill-opacity:0; stroke-width: 2; stroke: #000000" x1="170" y1="540" x2="170" y2="507.736"/>
    <polygon style="fill: #000000" points="170,500.236 175,510.236 170,507.736 165,510.236 "/>
    <polygon style="fill: none; fill-opacity:0; stroke-width: 2; stroke: #000000" points="170,500.236 175,510.236 170,507.736 165,510.236 "/>
  </g>
  <g>
    <polyline style="fill: none; fill-opacity:0; stroke-width: 2; stroke-dasharray: 4; stroke: #000000" points="120,134.5 20,134.5 20,559 90.2639,559 "/>
    <polygon style="fill: #000000" points="97.7639,559 87.7639,564 90.2639,559 87.7639,554 "/>
    <polygon style="fill: none; fill-opacity:0; stroke-width: 2; stroke: #000000" points="97.7639,559 87.7639,564 90.2639,559 87.7639,554 "/>
  </g>
</svg>
